<svg xmlns="http://www.w3.org/2000/svg" viewBox="0 0 20 20" shape-rendering="crispEdges" role="img" aria-label="book"><title>book</title><rect x="3" y="2" width="15" height="1" fill="#2b1c0d"/><rect x="2" y="3" width="1" height="1" fill="#2b1c0d"/><rect x="3" y="3" width="3" height="1" fill="#ea7d6d"/><rect x="6" y="3" width="2" height="1" fill="#c1452f"/><rect x="8" y="3" width="2" height="1" fill="#2b1c0d"/><rect x="10" y="3" width="3" height="1" fill="#c1452f"/><rect x="13" y="3" width="3" height="1" fill="#ea7d6d"/><rect x="16" y="3" width="1" height="1" fill="#8a2b1c"/><rect x="17" y="3" width="1" height="1" fill="#2b1c0d"/><rect x="2" y="4" width="1" height="1" fill="#2b1c0d"/><rect x="3" y="4" width="1" height="1" fill="#ea7d6d"/><rect x="4" y="4" width="1" height="1" fill="#c1452f"/><rect x="5" y="4" width="2" height="1" fill="#f4e6c2"/><rect x="7" y="4" width="1" height="1" fill="#c1452f"/><rect x="8" y="4" width="2" height="1" fill="#2b1c0d"/><rect x="10" y="4" width="1" height="1" fill="#c1452f"/><rect x="11" y="4" width="2" height="1" fill="#f4e6c2"/><rect x="13" y="4" width="1" height="1" fill="#c1452f"/><rect x="14" y="4" width="1" height="1" fill="#ea7d6d"/><rect x="15" y="4" width="1" height="1" fill="#f4e6c2"/><rect x="16" y="4" width="1" height="1" fill="#8a2b1c"/><rect x="17" y="4" width="1" height="1" fill="#2b1c0d"/><rect x="2" y="5" width="1" height="1" fill="#2b1c0d"/><rect x="3" y="5" width="1" height="1" fill="#ea7d6d"/><rect x="4" y="5" width="1" height="1" fill="#c1452f"/><rect x="5" y="5" width="2" height="1" fill="#f4e6c2"/><rect x="7" y="5" width="1" height="1" fill="#c1452f"/><rect x="8" y="5" width="2" height="1" fill="#2b1c0d"/><rect x="10" y="5" width="1" height="1" fill="#c1452f"/><rect x="11" y="5" width="2" height="1" fill="#f4e6c2"/><rect x="13" y="5" width="1" height="1" fill="#c1452f"/><rect x="14" y="5" width="1" height="1" fill="#ea7d6d"/><rect x="15" y="5" width="1" height="1" fill="#f4e6c2"/><rect x="16" y="5" width="1" height="1" fill="#8a2b1c"/><rect x="17" y="5" width="1" height="1" fill="#2b1c0d"/><rect x="2" y="6" width="1" height="1" fill="#2b1c0d"/><rect x="3" y="6" width="1" height="1" fill="#ea7d6d"/><rect x="4" y="6" width="1" height="1" fill="#c1452f"/><rect x="5" y="6" width="2" height="1" fill="#f4e6c2"/><rect x="7" y="6" width="1" height="1" fill="#c1452f"/><rect x="8" y="6" width="1" height="1" fill="#2b1c0d"/><rect x="9" y="6" width="1" height="1" fill="#f4e6c2"/><rect x="10" y="6" width="1" height="1" fill="#c1452f"/><rect x="11" y="6" width="2" height="1" fill="#f4e6c2"/><rect x="13" y="6" width="1" height="1" fill="#c1452f"/><rect x="14" y="6" width="1" height="1" fill="#ea7d6d"/><rect x="15" y="6" width="1" height="1" fill="#f4e6c2"/><rect x="16" y="6" width="1" height="1" fill="#8a2b1c"/><rect x="17" y="6" width="1" height="1" fill="#2b1c0d"/><rect x="2" y="7" width="1" height="1" fill="#2b1c0d"/><rect x="3" y="7" width="1" height="1" fill="#ea7d6d"/><rect x="4" y="7" width="1" height="1" fill="#c1452f"/><rect x="5" y="7" width="2" height="1" fill="#f4e6c2"/><rect x="7" y="7" width="1" height="1" fill="#c1452f"/><rect x="8" y="7" width="1" height="1" fill="#f4e6c2"/><rect x="9" y="7" width="1" height="1" fill="#d9c49a"/><rect x="10" y="7" width="1" height="1" fill="#c1452f"/><rect x="11" y="7" width="2" height="1" fill="#f4e6c2"/><rect x="13" y="7" width="1" height="1" fill="#c1452f"/><rect x="14" y="7" width="1" height="1" fill="#ea7d6d"/><rect x="15" y="7" width="1" height="1" fill="#f4e6c2"/><rect x="16" y="7" width="1" height="1" fill="#8a2b1c"/><rect x="17" y="7" width="1" height="1" fill="#2b1c0d"/><rect x="2" y="8" width="1" height="1" fill="#2b1c0d"/><rect x="3" y="8" width="1" height="1" fill="#ea7d6d"/><rect x="4" y="8" width="1" height="1" fill="#c1452f"/><rect x="5" y="8" width="2" height="1" fill="#f4e6c2"/><rect x="7" y="8" width="1" height="1" fill="#c1452f"/><rect x="8" y="8" width="1" height="1" fill="#f4e6c2"/><rect x="9" y="8" width="1" height="1" fill="#d9c49a"/><rect x="10" y="8" width="1" height="1" fill="#c1452f"/><rect x="11" y="8" width="2" height="1" fill="#f4e6c2"/><rect x="13" y="8" width="1" height="1" fill="#c1452f"/><rect x="14" y="8" width="1" height="1" fill="#ea7d6d"/><rect x="15" y="8" width="1" height="1" fill="#f4e6c2"/><rect x="16" y="8" width="1" height="1" fill="#8a2b1c"/><rect x="17" y="8" width="1" height="1" fill="#2b1c0d"/><rect x="2" y="9" width="1" height="1" fill="#2b1c0d"/><rect x="3" y="9" width="1" height="1" fill="#ea7d6d"/><rect x="4" y="9" width="1" height="1" fill="#c1452f"/><rect x="5" y="9" width="2" height="1" fill="#f4e6c2"/><rect x="7" y="9" width="1" height="1" fill="#c1452f"/><rect x="8" y="9" width="1" height="1" fill="#f4e6c2"/><rect x="9" y="9" width="1" height="1" fill="#d9c49a"/><rect x="10" y="9" width="1" height="1" fill="#c1452f"/><rect x="11" y="9" width="2" height="1" fill="#f4e6c2"/><rect x="13" y="9" width="1" height="1" fill="#c1452f"/><rect x="14" y="9" width="1" height="1" fill="#ea7d6d"/><rect x="15" y="9" width="1" height="1" fill="#f4e6c2"/><rect x="16" y="9" width="1" height="1" fill="#8a2b1c"/><rect x="17" y="9" width="1" height="1" fill="#2b1c0d"/><rect x="2" y="10" width="1" height="1" fill="#2b1c0d"/><rect x="3" y="10" width="1" height="1" fill="#ea7d6d"/><rect x="4" y="10" width="1" height="1" fill="#c1452f"/><rect x="5" y="10" width="2" height="1" fill="#f4e6c2"/><rect x="7" y="10" width="1" height="1" fill="#c1452f"/><rect x="8" y="10" width="1" height="1" fill="#f4e6c2"/><rect x="9" y="10" width="1" height="1" fill="#a88f63"/><rect x="10" y="10" width="1" height="1" fill="#c1452f"/><rect x="11" y="10" width="2" height="1" fill="#f4e6c2"/><rect x="13" y="10" width="1" height="1" fill="#c1452f"/><rect x="14" y="10" width="1" height="1" fill="#ea7d6d"/><rect x="15" y="10" width="1" height="1" fill="#f4e6c2"/><rect x="16" y="10" width="1" height="1" fill="#8a2b1c"/><rect x="17" y="10" width="1" height="1" fill="#2b1c0d"/><rect x="2" y="11" width="1" height="1" fill="#2b1c0d"/><rect x="3" y="11" width="1" height="1" fill="#ea7d6d"/><rect x="4" y="11" width="1" height="1" fill="#c1452f"/><rect x="5" y="11" width="2" height="1" fill="#f4e6c2"/><rect x="7" y="11" width="1" height="1" fill="#c1452f"/><rect x="8" y="11" width="1" height="1" fill="#f4e6c2"/><rect x="9" y="11" width="1" height="1" fill="#a88f63"/><rect x="10" y="11" width="1" height="1" fill="#c1452f"/><rect x="11" y="11" width="2" height="1" fill="#f4e6c2"/><rect x="13" y="11" width="1" height="1" fill="#c1452f"/><rect x="14" y="11" width="1" height="1" fill="#ea7d6d"/><rect x="15" y="11" width="1" height="1" fill="#f4e6c2"/><rect x="16" y="11" width="1" height="1" fill="#8a2b1c"/><rect x="17" y="11" width="1" height="1" fill="#2b1c0d"/><rect x="2" y="12" width="1" height="1" fill="#2b1c0d"/><rect x="3" y="12" width="1" height="1" fill="#ea7d6d"/><rect x="4" y="12" width="4" height="1" fill="#c1452f"/><rect x="8" y="12" width="2" height="1" fill="#2b1c0d"/><rect x="10" y="12" width="5" height="1" fill="#c1452f"/><rect x="15" y="12" width="2" height="1" fill="#8a2b1c"/><rect x="17" y="12" width="1" height="1" fill="#2b1c0d"/><rect x="2" y="13" width="1" height="1" fill="#2b1c0d"/><rect x="3" y="13" width="5" height="1" fill="#8a2b1c"/><rect x="8" y="13" width="2" height="1" fill="#2b1c0d"/><rect x="10" y="13" width="7" height="1" fill="#8a2b1c"/><rect x="17" y="13" width="1" height="1" fill="#2b1c0d"/><rect x="3" y="14" width="15" height="1" fill="#2b1c0d"/><rect x="4" y="15" width="1" height="1" fill="#2b1c0d"/><rect x="5" y="15" width="10" height="1" fill="#6e5a38"/><rect x="15" y="15" width="1" height="1" fill="#2b1c0d"/><rect x="5" y="16" width="10" height="1" fill="#2b1c0d"/></svg>