<svg xmlns="http://www.w3.org/2000/svg" viewBox="0 0 16 16" shape-rendering="crispEdges" role="img" aria-label="lupa"><title>lupa</title><rect x="5" y="1" width="6" height="1" fill="#241a0c"/><rect x="3" y="2" width="2" height="1" fill="#241a0c"/><rect x="5" y="2" width="6" height="1" fill="#6fe3f2"/><rect x="11" y="2" width="2" height="1" fill="#241a0c"/><rect x="2" y="3" width="1" height="1" fill="#241a0c"/><rect x="3" y="3" width="2" height="1" fill="#6fe3f2"/><rect x="5" y="3" width="6" height="1" fill="#241a0c"/><rect x="11" y="3" width="2" height="1" fill="#6fe3f2"/><rect x="13" y="3" width="1" height="1" fill="#241a0c"/><rect x="2" y="4" width="1" height="1" fill="#241a0c"/><rect x="3" y="4" width="1" height="1" fill="#6fe3f2"/><rect x="4" y="4" width="8" height="1" fill="#241a0c"/><rect x="12" y="4" width="1" height="1" fill="#6fe3f2"/><rect x="13" y="4" width="1" height="1" fill="#241a0c"/><rect x="1" y="5" width="1" height="1" fill="#241a0c"/><rect x="2" y="5" width="1" height="1" fill="#6fe3f2"/><rect x="3" y="5" width="10" height="1" fill="#241a0c"/><rect x="13" y="5" width="1" height="1" fill="#6fe3f2"/><rect x="14" y="5" width="1" height="1" fill="#241a0c"/><rect x="1" y="6" width="1" height="1" fill="#241a0c"/><rect x="2" y="6" width="1" height="1" fill="#6fe3f2"/><rect x="3" y="6" width="10" height="1" fill="#241a0c"/><rect x="13" y="6" width="1" height="1" fill="#6fe3f2"/><rect x="14" y="6" width="1" height="1" fill="#241a0c"/><rect x="2" y="7" width="1" height="1" fill="#241a0c"/><rect x="3" y="7" width="1" height="1" fill="#6fe3f2"/><rect x="4" y="7" width="8" height="1" fill="#241a0c"/><rect x="12" y="7" width="1" height="1" fill="#6fe3f2"/><rect x="13" y="7" width="1" height="1" fill="#241a0c"/><rect x="2" y="8" width="1" height="1" fill="#241a0c"/><rect x="3" y="8" width="2" height="1" fill="#6fe3f2"/><rect x="5" y="8" width="6" height="1" fill="#241a0c"/><rect x="11" y="8" width="2" height="1" fill="#6fe3f2"/><rect x="13" y="8" width="1" height="1" fill="#241a0c"/><rect x="3" y="9" width="2" height="1" fill="#241a0c"/><rect x="5" y="9" width="6" height="1" fill="#6fe3f2"/><rect x="11" y="9" width="2" height="1" fill="#241a0c"/><rect x="5" y="10" width="2" height="1" fill="#241a0c"/><rect x="7" y="10" width="2" height="1" fill="#4c4c57"/><rect x="9" y="10" width="2" height="1" fill="#241a0c"/><rect x="7" y="11" width="1" height="1" fill="#241a0c"/><rect x="8" y="11" width="2" height="1" fill="#4c4c57"/><rect x="10" y="11" width="1" height="1" fill="#241a0c"/><rect x="8" y="12" width="1" height="1" fill="#241a0c"/><rect x="9" y="12" width="2" height="1" fill="#4c4c57"/><rect x="11" y="12" width="1" height="1" fill="#241a0c"/><rect x="9" y="13" width="1" height="1" fill="#241a0c"/><rect x="10" y="13" width="2" height="1" fill="#4c4c57"/><rect x="12" y="13" width="1" height="1" fill="#241a0c"/><rect x="10" y="14" width="2" height="1" fill="#241a0c"/></svg>