<svg xmlns="http://www.w3.org/2000/svg" viewBox="0 0 20 20" shape-rendering="crispEdges" role="img" aria-label="mac"><title>mac</title><rect x="5" y="1" width="10" height="1" fill="#2b1c0d"/><rect x="4" y="2" width="1" height="1" fill="#2b1c0d"/><rect x="5" y="2" width="9" height="1" fill="#f4e6c2"/><rect x="14" y="2" width="1" height="1" fill="#d9c49a"/><rect x="15" y="2" width="1" height="1" fill="#2b1c0d"/><rect x="4" y="3" width="1" height="1" fill="#2b1c0d"/><rect x="5" y="3" width="1" height="1" fill="#f4e6c2"/><rect x="6" y="3" width="8" height="1" fill="#2b1c0d"/><rect x="14" y="3" width="1" height="1" fill="#d9c49a"/><rect x="15" y="3" width="1" height="1" fill="#a88f63"/><rect x="16" y="3" width="1" height="1" fill="#2b1c0d"/><rect x="4" y="4" width="1" height="1" fill="#2b1c0d"/><rect x="5" y="4" width="1" height="1" fill="#f4e6c2"/><rect x="6" y="4" width="1" height="1" fill="#2b1c0d"/><rect x="7" y="4" width="6" height="1" fill="#174a2a"/><rect x="13" y="4" width="1" height="1" fill="#2b1c0d"/><rect x="14" y="4" width="1" height="1" fill="#d9c49a"/><rect x="15" y="4" width="1" height="1" fill="#a88f63"/><rect x="16" y="4" width="1" height="1" fill="#2b1c0d"/><rect x="4" y="5" width="1" height="1" fill="#2b1c0d"/><rect x="5" y="5" width="1" height="1" fill="#f4e6c2"/><rect x="6" y="5" width="1" height="1" fill="#2b1c0d"/><rect x="7" y="5" width="1" height="1" fill="#174a2a"/><rect x="8" y="5" width="1" height="1" fill="#b9f5ab"/><rect x="9" y="5" width="3" height="1" fill="#62c96b"/><rect x="12" y="5" width="1" height="1" fill="#2f8a45"/><rect x="13" y="5" width="1" height="1" fill="#2b1c0d"/><rect x="14" y="5" width="1" height="1" fill="#d9c49a"/><rect x="15" y="5" width="1" height="1" fill="#a88f63"/><rect x="16" y="5" width="1" height="1" fill="#2b1c0d"/><rect x="4" y="6" width="1" height="1" fill="#2b1c0d"/><rect x="5" y="6" width="1" height="1" fill="#f4e6c2"/><rect x="6" y="6" width="1" height="1" fill="#2b1c0d"/><rect x="7" y="6" width="1" height="1" fill="#174a2a"/><rect x="8" y="6" width="2" height="1" fill="#62c96b"/><rect x="10" y="6" width="1" height="1" fill="#b9f5ab"/><rect x="11" y="6" width="1" height="1" fill="#62c96b"/><rect x="12" y="6" width="1" height="1" fill="#2f8a45"/><rect x="13" y="6" width="1" height="1" fill="#2b1c0d"/><rect x="14" y="6" width="1" height="1" fill="#d9c49a"/><rect x="15" y="6" width="1" height="1" fill="#a88f63"/><rect x="16" y="6" width="1" height="1" fill="#2b1c0d"/><rect x="4" y="7" width="1" height="1" fill="#2b1c0d"/><rect x="5" y="7" width="1" height="1" fill="#f4e6c2"/><rect x="6" y="7" width="1" height="1" fill="#2b1c0d"/><rect x="7" y="7" width="1" height="1" fill="#174a2a"/><rect x="8" y="7" width="4" height="1" fill="#62c96b"/><rect x="12" y="7" width="1" height="1" fill="#2f8a45"/><rect x="13" y="7" width="1" height="1" fill="#2b1c0d"/><rect x="14" y="7" width="1" height="1" fill="#d9c49a"/><rect x="15" y="7" width="1" height="1" fill="#a88f63"/><rect x="16" y="7" width="1" height="1" fill="#2b1c0d"/><rect x="4" y="8" width="1" height="1" fill="#2b1c0d"/><rect x="5" y="8" width="1" height="1" fill="#f4e6c2"/><rect x="6" y="8" width="1" height="1" fill="#2b1c0d"/><rect x="7" y="8" width="5" height="1" fill="#2f8a45"/><rect x="12" y="8" width="1" height="1" fill="#174a2a"/><rect x="13" y="8" width="1" height="1" fill="#2b1c0d"/><rect x="14" y="8" width="1" height="1" fill="#d9c49a"/><rect x="15" y="8" width="1" height="1" fill="#a88f63"/><rect x="16" y="8" width="1" height="1" fill="#2b1c0d"/><rect x="4" y="9" width="1" height="1" fill="#2b1c0d"/><rect x="5" y="9" width="1" height="1" fill="#f4e6c2"/><rect x="6" y="9" width="8" height="1" fill="#2b1c0d"/><rect x="14" y="9" width="1" height="1" fill="#d9c49a"/><rect x="15" y="9" width="1" height="1" fill="#a88f63"/><rect x="16" y="9" width="1" height="1" fill="#2b1c0d"/><rect x="4" y="10" width="1" height="1" fill="#2b1c0d"/><rect x="5" y="10" width="1" height="1" fill="#f4e6c2"/><rect x="6" y="10" width="9" height="1" fill="#d9c49a"/><rect x="15" y="10" width="1" height="1" fill="#a88f63"/><rect x="16" y="10" width="1" height="1" fill="#2b1c0d"/><rect x="4" y="11" width="1" height="1" fill="#2b1c0d"/><rect x="5" y="11" width="1" height="1" fill="#f4e6c2"/><rect x="6" y="11" width="8" height="1" fill="#2b1c0d"/><rect x="14" y="11" width="2" height="1" fill="#d9c49a"/><rect x="16" y="11" width="1" height="1" fill="#a88f63"/><rect x="17" y="11" width="1" height="1" fill="#2b1c0d"/><rect x="4" y="12" width="1" height="1" fill="#2b1c0d"/><rect x="5" y="12" width="1" height="1" fill="#f4e6c2"/><rect x="6" y="12" width="1" height="1" fill="#2b1c0d"/><rect x="7" y="12" width="6" height="1" fill="#a88f63"/><rect x="13" y="12" width="1" height="1" fill="#2b1c0d"/><rect x="14" y="12" width="1" height="1" fill="#d9c49a"/><rect x="15" y="12" width="1" height="1" fill="#a88f63"/><rect x="16" y="12" width="1" height="1" fill="#2b1c0d"/><rect x="4" y="13" width="1" height="1" fill="#2b1c0d"/><rect x="5" y="13" width="1" height="1" fill="#f4e6c2"/><rect x="6" y="13" width="9" height="1" fill="#d9c49a"/><rect x="15" y="13" width="1" height="1" fill="#a88f63"/><rect x="16" y="13" width="1" height="1" fill="#2b1c0d"/><rect x="4" y="14" width="1" height="1" fill="#2b1c0d"/><rect x="5" y="14" width="1" height="1" fill="#6e5a38"/><rect x="6" y="14" width="9" height="1" fill="#a88f63"/><rect x="15" y="14" width="1" height="1" fill="#6e5a38"/><rect x="16" y="14" width="1" height="1" fill="#2b1c0d"/><rect x="5" y="15" width="11" height="1" fill="#2b1c0d"/><rect x="4" y="16" width="1" height="1" fill="#2b1c0d"/><rect x="5" y="16" width="12" height="1" fill="#9aa0ab"/><rect x="17" y="16" width="1" height="1" fill="#2b1c0d"/><rect x="4" y="17" width="1" height="1" fill="#2b1c0d"/><rect x="5" y="17" width="12" height="1" fill="#666c78"/><rect x="17" y="17" width="1" height="1" fill="#2b1c0d"/><rect x="5" y="18" width="12" height="1" fill="#2b1c0d"/></svg>