<svg xmlns="http://www.w3.org/2000/svg" viewBox="0 0 41 26" shape-rendering="crispEdges" role="img" aria-label="AdmiraNeXT"><title>AdmiraNeXT</title><rect x="16" y="1" width="10" height="1" fill="#2f6640"/><rect x="14" y="2" width="14" height="1" fill="#2f6640"/><rect x="13" y="3" width="6" height="1" fill="#2f6640"/><rect x="22" y="3" width="7" height="1" fill="#2f6640"/><rect x="12" y="4" width="4" height="1" fill="#2f6640"/><rect x="25" y="4" width="5" height="1" fill="#2f6640"/><rect x="11" y="5" width="4" height="1" fill="#2f6640"/><rect x="27" y="5" width="4" height="1" fill="#2f6640"/><rect x="10" y="6" width="4" height="1" fill="#2f6640"/><rect x="28" y="6" width="3" height="1" fill="#2f6640"/><rect x="6" y="7" width="7" height="1" fill="#2f6640"/><rect x="29" y="7" width="7" height="1" fill="#2f6640"/><rect x="4" y="8" width="8" height="1" fill="#2f6640"/><rect x="29" y="8" width="8" height="1" fill="#2f6640"/><rect x="3" y="9" width="8" height="1" fill="#2f6640"/><rect x="30" y="9" width="8" height="1" fill="#2f6640"/><rect x="2" y="10" width="4" height="1" fill="#2f6640"/><rect x="35" y="10" width="4" height="1" fill="#2f6640"/><rect x="2" y="11" width="3" height="1" fill="#2f6640"/><rect x="36" y="11" width="4" height="1" fill="#2f6640"/><rect x="1" y="12" width="3" height="1" fill="#2f6640"/><rect x="37" y="12" width="3" height="1" fill="#2f6640"/><rect x="1" y="13" width="3" height="1" fill="#2f6640"/><rect x="38" y="13" width="2" height="1" fill="#2f6640"/><rect x="1" y="14" width="3" height="1" fill="#2f6640"/><rect x="38" y="14" width="3" height="1" fill="#2f6640"/><rect x="1" y="15" width="2" height="1" fill="#2f6640"/><rect x="38" y="15" width="3" height="1" fill="#2f6640"/><rect x="1" y="16" width="3" height="1" fill="#2f6640"/><rect x="38" y="16" width="3" height="1" fill="#2f6640"/><rect x="1" y="17" width="3" height="1" fill="#2f6640"/><rect x="38" y="17" width="3" height="1" fill="#2f6640"/><rect x="1" y="18" width="3" height="1" fill="#2f6640"/><rect x="37" y="18" width="3" height="1" fill="#2f6640"/><rect x="2" y="19" width="3" height="1" fill="#2f6640"/><rect x="36" y="19" width="4" height="1" fill="#2f6640"/><rect x="2" y="20" width="4" height="1" fill="#2f6640"/><rect x="13" y="20" width="2" height="1" fill="#2f6640"/><rect x="27" y="20" width="2" height="1" fill="#2f6640"/><rect x="36" y="20" width="3" height="1" fill="#2f6640"/><rect x="3" y="21" width="5" height="1" fill="#2f6640"/><rect x="11" y="21" width="5" height="1" fill="#2f6640"/><rect x="26" y="21" width="5" height="1" fill="#2f6640"/><rect x="34" y="21" width="5" height="1" fill="#2f6640"/><rect x="4" y="22" width="14" height="1" fill="#2f6640"/><rect x="24" y="22" width="14" height="1" fill="#2f6640"/><rect x="5" y="23" width="31" height="1" fill="#2f6640"/><rect x="15" y="24" width="11" height="1" fill="#2f6640"/><rect x="19" y="25" width="3" height="1" fill="#2f6640"/><rect x="15" y="0" width="10" height="1" fill="#7fe28d"/><rect x="13" y="1" width="14" height="1" fill="#7fe28d"/><rect x="12" y="2" width="6" height="1" fill="#7fe28d"/><rect x="21" y="2" width="7" height="1" fill="#7fe28d"/><rect x="11" y="3" width="4" height="1" fill="#7fe28d"/><rect x="24" y="3" width="5" height="1" fill="#7fe28d"/><rect x="10" y="4" width="4" height="1" fill="#7fe28d"/><rect x="26" y="4" width="4" height="1" fill="#7fe28d"/><rect x="9" y="5" width="4" height="1" fill="#7fe28d"/><rect x="27" y="5" width="3" height="1" fill="#7fe28d"/><rect x="5" y="6" width="7" height="1" fill="#7fe28d"/><rect x="28" y="6" width="7" height="1" fill="#7fe28d"/><rect x="3" y="7" width="8" height="1" fill="#7fe28d"/><rect x="28" y="7" width="8" height="1" fill="#7fe28d"/><rect x="2" y="8" width="8" height="1" fill="#7fe28d"/><rect x="29" y="8" width="8" height="1" fill="#7fe28d"/><rect x="1" y="9" width="4" height="1" fill="#7fe28d"/><rect x="34" y="9" width="4" height="1" fill="#7fe28d"/><rect x="1" y="10" width="3" height="1" fill="#7fe28d"/><rect x="35" y="10" width="4" height="1" fill="#7fe28d"/><rect x="0" y="11" width="3" height="1" fill="#7fe28d"/><rect x="36" y="11" width="3" height="1" fill="#7fe28d"/><rect x="0" y="12" width="3" height="1" fill="#7fe28d"/><rect x="37" y="12" width="2" height="1" fill="#7fe28d"/><rect x="0" y="13" width="3" height="1" fill="#7fe28d"/><rect x="37" y="13" width="3" height="1" fill="#7fe28d"/><rect x="0" y="14" width="2" height="1" fill="#7fe28d"/><rect x="37" y="14" width="3" height="1" fill="#7fe28d"/><rect x="0" y="15" width="3" height="1" fill="#7fe28d"/><rect x="37" y="15" width="3" height="1" fill="#7fe28d"/><rect x="0" y="16" width="3" height="1" fill="#7fe28d"/><rect x="37" y="16" width="3" height="1" fill="#7fe28d"/><rect x="0" y="17" width="3" height="1" fill="#7fe28d"/><rect x="36" y="17" width="3" height="1" fill="#7fe28d"/><rect x="1" y="18" width="3" height="1" fill="#7fe28d"/><rect x="35" y="18" width="4" height="1" fill="#7fe28d"/><rect x="1" y="19" width="4" height="1" fill="#7fe28d"/><rect x="12" y="19" width="2" height="1" fill="#7fe28d"/><rect x="26" y="19" width="2" height="1" fill="#7fe28d"/><rect x="35" y="19" width="3" height="1" fill="#7fe28d"/><rect x="2" y="20" width="5" height="1" fill="#7fe28d"/><rect x="10" y="20" width="5" height="1" fill="#7fe28d"/><rect x="25" y="20" width="5" height="1" fill="#7fe28d"/><rect x="33" y="20" width="5" height="1" fill="#7fe28d"/><rect x="3" y="21" width="14" height="1" fill="#7fe28d"/><rect x="23" y="21" width="14" height="1" fill="#7fe28d"/><rect x="4" y="22" width="31" height="1" fill="#7fe28d"/><rect x="14" y="23" width="11" height="1" fill="#7fe28d"/><rect x="18" y="24" width="3" height="1" fill="#7fe28d"/></svg>