<svg xmlns="http://www.w3.org/2000/svg" viewBox="0 0 24 18" shape-rendering="crispEdges" role="img" aria-label="pixeria"><title>pixeria</title><rect x="4" y="1" width="16" height="1" fill="#2b1c0d"/><rect x="3" y="2" width="1" height="1" fill="#2b1c0d"/><rect x="4" y="2" width="14" height="1" fill="#dde1e8"/><rect x="19" y="2" width="1" height="1" fill="#a6acb7"/><rect x="20" y="2" width="1" height="1" fill="#2b1c0d"/><rect x="3" y="3" width="1" height="1" fill="#2b1c0d"/><rect x="4" y="3" width="1" height="1" fill="#dde1e8"/><rect x="5" y="3" width="14" height="1" fill="#2b1c0d"/><rect x="19" y="3" width="1" height="1" fill="#a6acb7"/><rect x="20" y="3" width="1" height="1" fill="#2b1c0d"/><rect x="3" y="4" width="1" height="1" fill="#2b1c0d"/><rect x="4" y="4" width="1" height="1" fill="#dde1e8"/><rect x="5" y="4" width="1" height="1" fill="#2b1c0d"/><rect x="6" y="4" width="12" height="1" fill="#f7ecd2"/><rect x="18" y="4" width="1" height="1" fill="#2b1c0d"/><rect x="19" y="4" width="1" height="1" fill="#a6acb7"/><rect x="20" y="4" width="1" height="1" fill="#2b1c0d"/><rect x="3" y="5" width="1" height="1" fill="#2b1c0d"/><rect x="4" y="5" width="1" height="1" fill="#dde1e8"/><rect x="5" y="5" width="1" height="1" fill="#2b1c0d"/><rect x="6" y="5" width="1" height="1" fill="#f7ecd2"/><rect x="7" y="5" width="2" height="1" fill="#f08b78"/><rect x="9" y="5" width="2" height="1" fill="#f7ecd2"/><rect x="11" y="5" width="2" height="1" fill="#b2e2f7"/><rect x="13" y="5" width="2" height="1" fill="#f7ecd2"/><rect x="15" y="5" width="2" height="1" fill="#c6f7b6"/><rect x="17" y="5" width="1" height="1" fill="#f7ecd2"/><rect x="18" y="5" width="1" height="1" fill="#2b1c0d"/><rect x="19" y="5" width="1" height="1" fill="#a6acb7"/><rect x="20" y="5" width="1" height="1" fill="#2b1c0d"/><rect x="3" y="6" width="1" height="1" fill="#2b1c0d"/><rect x="4" y="6" width="1" height="1" fill="#dde1e8"/><rect x="5" y="6" width="1" height="1" fill="#2b1c0d"/><rect x="6" y="6" width="1" height="1" fill="#f7ecd2"/><rect x="7" y="6" width="2" height="1" fill="#f08b78"/><rect x="9" y="6" width="2" height="1" fill="#f7ecd2"/><rect x="11" y="6" width="2" height="1" fill="#b2e2f7"/><rect x="13" y="6" width="2" height="1" fill="#f7ecd2"/><rect x="15" y="6" width="2" height="1" fill="#c6f7b6"/><rect x="17" y="6" width="1" height="1" fill="#f7ecd2"/><rect x="18" y="6" width="1" height="1" fill="#2b1c0d"/><rect x="19" y="6" width="1" height="1" fill="#a6acb7"/><rect x="20" y="6" width="1" height="1" fill="#2b1c0d"/><rect x="3" y="7" width="1" height="1" fill="#2b1c0d"/><rect x="4" y="7" width="1" height="1" fill="#dde1e8"/><rect x="5" y="7" width="1" height="1" fill="#2b1c0d"/><rect x="6" y="7" width="12" height="1" fill="#f7ecd2"/><rect x="18" y="7" width="1" height="1" fill="#2b1c0d"/><rect x="19" y="7" width="1" height="1" fill="#a6acb7"/><rect x="20" y="7" width="1" height="1" fill="#2b1c0d"/><rect x="3" y="8" width="1" height="1" fill="#2b1c0d"/><rect x="4" y="8" width="1" height="1" fill="#dde1e8"/><rect x="5" y="8" width="1" height="1" fill="#2b1c0d"/><rect x="6" y="8" width="1" height="1" fill="#f7ecd2"/><rect x="7" y="8" width="2" height="1" fill="#fce392"/><rect x="9" y="8" width="2" height="1" fill="#f7ecd2"/><rect x="11" y="8" width="2" height="1" fill="#d2b2ef"/><rect x="13" y="8" width="2" height="1" fill="#f7ecd2"/><rect x="15" y="8" width="2" height="1" fill="#52abdd"/><rect x="17" y="8" width="1" height="1" fill="#f7ecd2"/><rect x="18" y="8" width="1" height="1" fill="#2b1c0d"/><rect x="19" y="8" width="1" height="1" fill="#a6acb7"/><rect x="20" y="8" width="1" height="1" fill="#2b1c0d"/><rect x="3" y="9" width="1" height="1" fill="#2b1c0d"/><rect x="4" y="9" width="1" height="1" fill="#dde1e8"/><rect x="5" y="9" width="1" height="1" fill="#2b1c0d"/><rect x="6" y="9" width="1" height="1" fill="#f7ecd2"/><rect x="7" y="9" width="2" height="1" fill="#fce392"/><rect x="9" y="9" width="2" height="1" fill="#f7ecd2"/><rect x="11" y="9" width="2" height="1" fill="#d2b2ef"/><rect x="13" y="9" width="2" height="1" fill="#f7ecd2"/><rect x="15" y="9" width="2" height="1" fill="#52abdd"/><rect x="17" y="9" width="1" height="1" fill="#f7ecd2"/><rect x="18" y="9" width="1" height="1" fill="#2b1c0d"/><rect x="19" y="9" width="1" height="1" fill="#a6acb7"/><rect x="20" y="9" width="1" height="1" fill="#2b1c0d"/><rect x="3" y="10" width="1" height="1" fill="#2b1c0d"/><rect x="4" y="10" width="1" height="1" fill="#dde1e8"/><rect x="5" y="10" width="1" height="1" fill="#2b1c0d"/><rect x="6" y="10" width="12" height="1" fill="#f7ecd2"/><rect x="18" y="10" width="1" height="1" fill="#2b1c0d"/><rect x="19" y="10" width="1" height="1" fill="#a6acb7"/><rect x="20" y="10" width="1" height="1" fill="#2b1c0d"/><rect x="3" y="11" width="1" height="1" fill="#2b1c0d"/><rect x="4" y="11" width="1" height="1" fill="#dde1e8"/><rect x="5" y="11" width="1" height="1" fill="#2b1c0d"/><rect x="6" y="11" width="1" height="1" fill="#f7ecd2"/><rect x="7" y="11" width="2" height="1" fill="#6ed177"/><rect x="9" y="11" width="2" height="1" fill="#f7ecd2"/><rect x="11" y="11" width="2" height="1" fill="#e3b436"/><rect x="13" y="11" width="2" height="1" fill="#f7ecd2"/><rect x="15" y="11" width="2" height="1" fill="#f08b78"/><rect x="17" y="11" width="1" height="1" fill="#f7ecd2"/><rect x="18" y="11" width="1" height="1" fill="#2b1c0d"/><rect x="19" y="11" width="1" height="1" fill="#a6acb7"/><rect x="20" y="11" width="1" height="1" fill="#2b1c0d"/><rect x="3" y="12" width="1" height="1" fill="#2b1c0d"/><rect x="4" y="12" width="1" height="1" fill="#dde1e8"/><rect x="5" y="12" width="1" height="1" fill="#2b1c0d"/><rect x="6" y="12" width="1" height="1" fill="#f7ecd2"/><rect x="7" y="12" width="2" height="1" fill="#6ed177"/><rect x="9" y="12" width="2" height="1" fill="#f7ecd2"/><rect x="11" y="12" width="2" height="1" fill="#e3b436"/><rect x="13" y="12" width="2" height="1" fill="#f7ecd2"/><rect x="15" y="12" width="2" height="1" fill="#f08b78"/><rect x="17" y="12" width="1" height="1" fill="#f7ecd2"/><rect x="18" y="12" width="1" height="1" fill="#2b1c0d"/><rect x="19" y="12" width="1" height="1" fill="#a6acb7"/><rect x="20" y="12" width="1" height="1" fill="#2b1c0d"/><rect x="3" y="13" width="1" height="1" fill="#2b1c0d"/><rect x="4" y="13" width="1" height="1" fill="#dde1e8"/><rect x="5" y="13" width="1" height="1" fill="#2b1c0d"/><rect x="6" y="13" width="12" height="1" fill="#f7ecd2"/><rect x="18" y="13" width="1" height="1" fill="#2b1c0d"/><rect x="19" y="13" width="1" height="1" fill="#a6acb7"/><rect x="20" y="13" width="1" height="1" fill="#2b1c0d"/><rect x="3" y="14" width="1" height="1" fill="#2b1c0d"/><rect x="4" y="14" width="1" height="1" fill="#dde1e8"/><rect x="5" y="14" width="14" height="1" fill="#2b1c0d"/><rect x="19" y="14" width="1" height="1" fill="#a6acb7"/><rect x="20" y="14" width="1" height="1" fill="#2b1c0d"/><rect x="3" y="15" width="1" height="1" fill="#2b1c0d"/><rect x="4" y="15" width="14" height="1" fill="#6b7280"/><rect x="19" y="15" width="1" height="1" fill="#6b7280"/><rect x="20" y="15" width="1" height="1" fill="#2b1c0d"/><rect x="4" y="16" width="16" height="1" fill="#2b1c0d"/><rect x="5" y="17" width="14" height="1" fill="#1d1409" opacity=".35"/></svg>