<svg xmlns="http://www.w3.org/2000/svg" viewBox="0 0 16 16" shape-rendering="crispEdges" role="img" aria-label="urna"><title>urna</title><rect x="5" y="2" width="6" height="1" fill="#241a0c"/><rect x="4" y="3" width="1" height="1" fill="#241a0c"/><rect x="5" y="3" width="6" height="1" fill="#f2ecd9"/><rect x="11" y="3" width="1" height="1" fill="#241a0c"/><rect x="4" y="4" width="1" height="1" fill="#241a0c"/><rect x="5" y="4" width="1" height="1" fill="#f2ecd9"/><rect x="6" y="4" width="4" height="1" fill="#241a0c"/><rect x="10" y="4" width="1" height="1" fill="#f2ecd9"/><rect x="11" y="4" width="1" height="1" fill="#241a0c"/><rect x="2" y="5" width="3" height="1" fill="#241a0c"/><rect x="5" y="5" width="6" height="1" fill="#f2ecd9"/><rect x="11" y="5" width="3" height="1" fill="#241a0c"/><rect x="2" y="6" width="1" height="1" fill="#241a0c"/><rect x="3" y="6" width="10" height="1" fill="#12100c"/><rect x="13" y="6" width="1" height="1" fill="#241a0c"/><rect x="2" y="7" width="1" height="1" fill="#241a0c"/><rect x="3" y="7" width="1" height="1" fill="#dfae2e"/><rect x="4" y="7" width="8" height="1" fill="#241a0c"/><rect x="12" y="7" width="1" height="1" fill="#dfae2e"/><rect x="13" y="7" width="1" height="1" fill="#241a0c"/><rect x="2" y="8" width="1" height="1" fill="#241a0c"/><rect x="3" y="8" width="1" height="1" fill="#dfae2e"/><rect x="4" y="8" width="1" height="1" fill="#241a0c"/><rect x="5" y="8" width="6" height="1" fill="#8a6410"/><rect x="11" y="8" width="1" height="1" fill="#241a0c"/><rect x="12" y="8" width="1" height="1" fill="#dfae2e"/><rect x="13" y="8" width="1" height="1" fill="#241a0c"/><rect x="2" y="9" width="1" height="1" fill="#241a0c"/><rect x="3" y="9" width="1" height="1" fill="#dfae2e"/><rect x="4" y="9" width="1" height="1" fill="#241a0c"/><rect x="5" y="9" width="1" height="1" fill="#8a6410"/><rect x="6" y="9" width="4" height="1" fill="#241a0c"/><rect x="10" y="9" width="1" height="1" fill="#8a6410"/><rect x="11" y="9" width="1" height="1" fill="#241a0c"/><rect x="12" y="9" width="1" height="1" fill="#dfae2e"/><rect x="13" y="9" width="1" height="1" fill="#241a0c"/><rect x="2" y="10" width="1" height="1" fill="#241a0c"/><rect x="3" y="10" width="1" height="1" fill="#dfae2e"/><rect x="4" y="10" width="1" height="1" fill="#241a0c"/><rect x="5" y="10" width="6" height="1" fill="#8a6410"/><rect x="11" y="10" width="1" height="1" fill="#241a0c"/><rect x="12" y="10" width="1" height="1" fill="#dfae2e"/><rect x="13" y="10" width="1" height="1" fill="#241a0c"/><rect x="2" y="11" width="1" height="1" fill="#241a0c"/><rect x="3" y="11" width="1" height="1" fill="#dfae2e"/><rect x="4" y="11" width="8" height="1" fill="#241a0c"/><rect x="12" y="11" width="1" height="1" fill="#dfae2e"/><rect x="13" y="11" width="1" height="1" fill="#241a0c"/><rect x="2" y="12" width="1" height="1" fill="#241a0c"/><rect x="3" y="12" width="10" height="1" fill="#dfae2e"/><rect x="13" y="12" width="1" height="1" fill="#241a0c"/><rect x="2" y="13" width="12" height="1" fill="#241a0c"/></svg>